ply
format ascii 1.0
comment Created by Blender 2.79 (sub 0) - www.blender.org, source file: 'wall_short.blend'
element vertex 22
property float x
property float y
property float z
property float nx
property float ny
property float nz
property uchar red
property uchar green
property uchar blue
element face 10
property list uchar uint vertex_indices
end_header
1.000000 4.000000 0.500000 0.000000 1.000000 -0.000000 64 64 64
1.000000 4.000000 -0.500000 0.000000 1.000000 -0.000000 64 64 64
-0.999999 4.000000 -0.500000 0.000000 1.000000 -0.000000 64 64 64
-1.000000 4.000000 0.500000 -0.000000 1.000000 0.000000 64 64 64
-1.000000 4.000000 0.500000 -1.000000 -0.000000 -0.000000 64 64 64
-1.000000 -0.500000 -0.500000 -1.000000 -0.000000 -0.000000 65 65 65
-1.000000 -0.500000 0.500000 -1.000000 -0.000000 -0.000000 64 64 64
-0.999999 4.000000 -0.500000 0.000000 -0.000000 -1.000000 64 64 64
1.000000 -0.500000 -0.500000 0.000000 -0.000000 -1.000000 64 64 64
-1.000000 -0.500000 -0.500000 0.000000 -0.000000 -1.000000 65 65 65
1.000000 4.000000 -0.500000 1.000000 -0.000000 0.000000 64 64 64
1.000000 -0.500000 0.500000 1.000000 -0.000000 0.000000 64 64 64
1.000000 -0.500000 -0.500000 1.000000 -0.000000 0.000000 64 64 64
-1.000000 -0.500000 0.500000 -0.000000 0.000000 1.000000 64 64 64
1.000000 4.000000 0.500000 -0.000000 0.000000 1.000000 64 64 64
-1.000000 4.000000 0.500000 -0.000000 0.000000 1.000000 64 64 64
-1.000000 4.000000 0.500000 -1.000000 0.000000 -0.000001 64 64 64
-0.999999 4.000000 -0.500000 -1.000000 0.000000 -0.000001 64 64 64
-1.000000 -0.500000 -0.500000 -1.000000 0.000000 -0.000001 65 65 65
1.000000 4.000000 -0.500000 0.000000 0.000000 -1.000000 64 64 64
1.000000 4.000000 0.500000 1.000000 -0.000000 0.000000 64 64 64
1.000000 -0.500000 0.500000 -0.000000 0.000000 1.000000 64 64 64
3 0 1 2
3 0 2 3
3 4 5 6
3 7 8 9
3 10 11 12
3 13 14 15
3 16 17 18
3 7 19 8
3 10 20 11
3 13 21 14
