ply
format ascii 1.0
comment Created by Blender 2.79 (sub 0) - www.blender.org, source file: 'palmtree.blend'
element vertex 175
property float x
property float y
property float z
property float nx
property float ny
property float nz
property uchar red
property uchar green
property uchar blue
element face 63
property list uchar uint vertex_indices
end_header
0.000000 6.962082 0.137316 -0.587699 0.017115 0.808899 135 84 45
-0.310941 -2.000000 0.101031 -0.587699 0.017115 0.808899 135 84 45
0.000000 -2.000000 0.326943 -0.587699 0.017115 0.808899 135 84 45
-0.130595 6.962082 0.042433 -0.950917 0.017115 -0.308972 135 84 45
-0.192172 -2.000000 -0.264502 -0.950917 0.017115 -0.308972 135 84 45
-0.310941 -2.000000 0.101031 -0.950917 0.017115 -0.308972 135 84 45
-0.080712 6.962082 -0.111091 0.000000 0.017115 -0.999854 135 84 45
0.192172 -2.000000 -0.264502 0.000000 0.017115 -0.999854 135 84 45
-0.192172 -2.000000 -0.264502 0.000000 0.017115 -0.999854 135 84 45
-0.080712 6.962082 -0.111091 0.000000 1.000000 0.000000 255 255 255
-0.130595 6.962082 0.042433 0.000000 1.000000 0.000000 255 255 255
0.000000 6.962082 0.137316 0.000000 1.000000 0.000000 255 255 255
0.130595 6.962082 0.042433 0.000000 1.000000 -0.000000 255 255 255
0.080712 6.962082 -0.111091 0.000000 1.000000 -0.000000 255 255 255
0.080712 6.962082 -0.111091 0.950917 0.017115 -0.308972 135 84 45
0.310941 -2.000000 0.101031 0.950917 0.017115 -0.308972 135 84 45
0.192172 -2.000000 -0.264502 0.950917 0.017115 -0.308972 135 84 45
0.130595 6.962082 0.042433 0.587699 0.017115 0.808899 135 84 45
0.000000 -2.000000 0.326943 0.587699 0.017115 0.808899 135 84 45
0.310941 -2.000000 0.101031 0.587699 0.017115 0.808899 135 84 45
1.275972 6.662866 0.534080 0.316198 0.803396 0.504554 75 255 68
1.773946 6.805983 -0.005878 0.316198 0.803396 0.504554 75 255 68
0.819962 7.182961 -0.008286 0.316198 0.803396 0.504554 75 255 68
1.773946 6.805983 -0.005878 0.317162 0.799354 -0.510335 75 255 68
1.267210 6.662866 -0.544972 0.317162 0.799354 -0.510335 75 255 68
0.819962 7.182961 -0.008286 0.317162 0.799354 -0.510335 75 255 68
0.819962 7.182961 -0.008286 -0.195051 0.893719 0.404007 75 255 68
-0.012941 6.996830 0.001344 -0.195051 0.893719 0.404007 53 255 60
0.495337 6.912251 0.433834 -0.195051 0.893719 0.404007 64 255 64
0.819962 7.182961 -0.008286 0.166693 0.773862 -0.611024 75 255 68
1.267210 6.662866 -0.544972 0.166693 0.773862 -0.611024 75 255 68
0.488227 6.912251 -0.441639 0.166693 0.773862 -0.611024 75 255 68
0.819962 7.182961 -0.008286 -0.204165 0.892835 -0.401450 75 255 68
0.488227 6.912251 -0.441639 -0.204165 0.892835 -0.401450 75 255 68
-0.012941 6.996830 0.001344 -0.204165 0.892835 -0.401450 53 255 60
0.819962 7.182961 -0.008286 0.171473 0.779125 0.602961 77 255 70
0.495337 6.912251 0.433834 0.171473 0.779125 0.602961 65 255 65
1.275972 6.662866 0.534080 0.171473 0.779125 0.602961 75 255 68
1.773946 6.805983 -0.005878 0.439175 0.675614 -0.592175 75 255 68
1.978972 6.330353 -0.396473 0.439175 0.675614 -0.592175 75 255 68
1.267210 6.662866 -0.544972 0.439175 0.675614 -0.592175 75 255 68
1.275972 6.662866 0.534080 0.442638 0.677238 0.587725 75 255 68
1.983040 6.330353 0.384716 0.442638 0.677238 0.587725 75 255 68
1.773946 6.805983 -0.005878 0.442638 0.677238 0.587725 75 255 68
1.773946 6.805983 -0.005878 0.730407 0.593068 -0.338787 75 255 68
2.479063 5.937579 -0.005878 0.730407 0.593068 -0.338787 75 255 68
1.978972 6.330353 -0.396473 0.730407 0.593068 -0.338787 75 255 68
1.773946 6.805983 -0.005878 0.732275 0.594585 0.332028 75 255 68
1.983040 6.330353 0.384716 0.732275 0.594585 0.332028 75 255 68
2.479063 5.937579 -0.005878 0.732275 0.594585 0.332028 75 255 68
0.022893 6.662866 1.382401 -0.330643 0.803396 0.495208 75 255 68
0.719509 6.805983 1.615336 -0.330643 0.803396 0.495208 75 255 68
0.330726 7.182961 0.744165 -0.330643 0.803396 0.495208 75 255 68
0.719509 6.805983 1.615336 0.595491 0.799354 0.080147 75 255 68
1.003568 6.662866 0.932171 0.595491 0.799354 0.080147 75 255 68
0.330726 7.182961 0.744165 0.595491 0.799354 0.080147 75 255 68
0.330726 7.182961 0.744165 -0.448458 0.893719 -0.012340 75 255 68
-0.019413 6.996830 -0.011628 -0.448458 0.893719 -0.012340 53 255 60
-0.205601 6.912251 0.629253 -0.448458 0.893719 -0.012340 53 255 60
0.330726 7.182961 0.744165 0.625668 0.773862 -0.098370 75 255 68
1.003568 6.662866 0.932171 0.625668 0.773862 -0.098370 75 255 68
0.590055 6.912251 0.263966 0.625668 0.773862 -0.098370 62 255 63
0.330726 7.182961 0.744165 0.282511 0.892835 -0.350760 75 255 68
0.590055 6.912251 0.263966 0.282511 0.892835 -0.350760 62 255 63
-0.019413 6.996830 -0.011628 0.282511 0.892835 -0.350760 53 255 60
0.330726 7.182961 0.744165 -0.479720 0.779125 0.403527 75 255 68
-0.205601 6.912251 0.629253 -0.479720 0.779125 0.403527 53 255 60
0.022893 6.662866 1.382401 -0.479720 0.779125 0.403527 75 255 68
0.719509 6.805983 1.615336 0.720148 0.675614 0.157901 75 255 68
1.159821 6.330353 1.642272 0.720148 0.675614 0.157901 75 255 68
1.003568 6.662866 0.932171 0.720148 0.675614 0.157901 75 255 68
0.022893 6.662866 1.382401 -0.354688 0.677238 0.644628 75 255 68
0.448919 6.330353 1.966143 -0.354688 0.677238 0.644628 75 255 68
0.719509 6.805983 1.615336 -0.354688 0.677238 0.644628 75 255 68
0.719509 6.805983 1.615336 0.608376 0.593068 0.527399 75 255 68
1.008493 5.937579 2.258515 0.608376 0.593068 0.527399 75 255 68
1.159821 6.330353 1.642272 0.608376 0.593068 0.527399 75 255 68
0.719509 6.805983 1.615336 -0.002749 0.594585 0.804028 75 255 68
0.448919 6.330353 1.966143 -0.002749 0.594585 0.804028 75 255 68
1.008493 5.937579 2.258515 -0.002749 0.594585 0.804028 75 255 68
-1.320555 6.662866 0.470970 -0.572406 0.803396 -0.164031 56 255 61
-1.330157 6.805983 1.205436 -0.572406 0.803396 -0.164031 53 255 60
-0.618873 7.182961 0.569696 -0.572406 0.803396 -0.164031 53 255 60
-1.330157 6.805983 1.205436 0.105109 0.799354 0.591595 53 255 60
-0.592925 6.662866 1.267829 0.105109 0.799354 0.591595 80 255 74
-0.618873 7.182961 0.569696 0.105109 0.799354 0.591595 53 255 60
-0.618873 7.182961 0.569696 -0.124892 0.893719 -0.430893 53 255 60
-0.005705 6.996830 0.005917 -0.124892 0.893719 -0.430893 53 255 60
-0.672842 6.912251 0.023858 -0.124892 0.893719 -0.430893 75 255 68
-0.618873 7.182961 0.569696 0.284333 0.773862 0.565943 53 255 60
-0.592925 6.662866 1.267829 0.284333 0.773862 0.565943 80 255 74
-0.082490 6.912251 0.670378 0.284333 0.773862 0.565943 53 255 60
-0.618873 7.182961 0.569696 0.420162 0.892835 0.162201 53 255 60
-0.082490 6.912251 0.670378 0.420162 0.892835 0.162201 53 255 60
-0.005705 6.996830 0.005917 0.420162 0.892835 0.162201 53 255 60
-0.618873 7.182961 0.569696 -0.530509 0.779125 -0.333954 53 255 60
-0.672842 6.912251 0.023858 -0.530509 0.779125 -0.333954 75 255 68
-1.320555 6.662866 0.470970 -0.530509 0.779125 -0.333954 56 255 61
-1.330157 6.805983 1.205436 0.069035 0.675614 0.734016 53 255 60
-1.221649 6.330353 1.633018 0.069035 0.675614 0.734016 76 255 69
-0.592925 6.662866 1.267829 0.069035 0.675614 0.734016 80 255 74
-1.320555 6.662866 0.470970 -0.722048 0.677238 -0.141405 56 255 61
-1.746731 6.330353 1.054604 -0.722048 0.677238 -0.141405 75 255 68
-1.330157 6.805983 1.205436 -0.722048 0.677238 -0.141405 53 255 60
-1.330157 6.805983 1.205436 -0.316949 0.593068 0.740145 53 255 60
-1.854699 5.937579 1.676654 -0.316949 0.593068 0.740145 75 255 68
-1.221649 6.330353 1.633018 -0.316949 0.593068 0.740145 76 255 69
-1.330157 6.805983 1.205436 -0.766633 0.594585 0.242369 53 255 60
-1.746731 6.330353 1.054604 -0.766633 0.594585 0.242369 75 255 68
-1.854699 5.937579 1.676654 -0.766633 0.594585 0.242369 75 255 68
-0.996013 6.662866 -0.950853 -0.111262 0.803396 -0.584958 83 255 77
-1.656143 6.805983 -0.628733 -0.111262 0.803396 -0.584958 75 255 68
-0.768233 7.182961 -0.279867 -0.111262 0.803396 -0.584958 75 255 68
-1.656143 6.805983 -0.628733 -0.480912 0.799354 0.360218 75 255 68
-1.379915 6.662866 0.057636 -0.480912 0.799354 0.360218 53 255 60
-0.768233 7.182961 -0.279867 -0.480912 0.799354 0.360218 75 255 68
-0.768233 7.182961 -0.279867 0.328513 0.893719 -0.305525 75 255 68
0.011245 6.996830 0.013791 0.328513 0.893719 -0.305525 53 255 60
-0.305153 6.912251 -0.573820 0.328513 0.893719 -0.305525 75 255 68
-0.768233 7.182961 -0.279867 -0.377311 0.773862 0.508697 75 255 68
-1.379915 6.662866 0.057636 -0.377311 0.773862 0.508697 53 255 60
-0.616626 6.912251 0.244403 -0.377311 0.773862 0.508697 53 255 60
-0.768233 7.182961 -0.279867 0.044348 0.892835 0.448195 75 255 68
-0.616626 6.912251 0.244403 0.044348 0.892835 0.448195 53 255 60
0.011245 6.996830 0.013791 0.044348 0.892835 0.448195 53 255 60
-0.768233 7.182961 -0.279867 0.059328 0.779125 -0.624055 75 255 68
-0.305153 6.912251 -0.573820 0.059328 0.779125 -0.624055 75 255 68
-0.996013 6.662866 -0.950853 0.059328 0.779125 -0.624055 83 255 77
-1.656143 6.805983 -0.628733 -0.624322 0.675614 0.392132 75 255 68
-1.989076 6.330353 -0.339328 -0.624322 0.675614 0.392132 53 255 60
-1.379915 6.662866 0.057636 -0.624322 0.675614 0.392132 53 255 60
-0.996013 6.662866 -0.950853 -0.198841 0.677238 -0.708386 83 255 77
-1.709027 6.330353 -1.068605 -0.198841 0.677238 -0.708386 75 255 68
-1.656143 6.805983 -0.628733 -0.198841 0.677238 -0.708386 75 255 68
-1.656143 6.805983 -0.628733 -0.803583 0.593068 0.050246 75 255 68
-2.313070 5.937579 -0.884932 -0.803583 0.593068 0.050246 75 255 68
-1.989076 6.330353 -0.339328 -0.803583 0.593068 0.050246 53 255 60
-1.656143 6.805983 -0.628733 -0.561588 0.594585 -0.575403 75 255 68
-1.709027 6.330353 -1.068605 -0.561588 0.594585 -0.575403 75 255 68
-2.313070 5.937579 -0.884932 -0.561588 0.594585 -0.575403 75 255 68
0.719545 6.662866 -1.167353 0.546535 0.803396 -0.236337 75 255 68
0.261022 6.805983 -1.741190 0.546535 0.803396 -0.236337 75 255 68
0.114509 7.182961 -0.798521 0.546535 0.803396 -0.236337 75 255 68
0.261022 6.805983 -1.741190 -0.456558 0.799354 -0.390625 75 255 68
-0.348444 6.662866 -1.321720 -0.456558 0.799354 -0.390625 75 255 68
0.114509 7.182961 -0.798521 -0.456558 0.799354 -0.390625 75 255 68
0.114509 7.182961 -0.798521 0.369900 0.893719 0.253851 75 255 68
-0.001812 6.996830 0.026276 0.369900 0.893719 0.253851 53 255 60
0.502507 6.912251 -0.410824 0.369900 0.893719 0.253851 75 255 68
0.114509 7.182961 -0.798521 -0.578825 0.773862 -0.257097 75 255 68
-0.348444 6.662866 -1.321720 -0.578825 0.773862 -0.257097 75 255 68
-0.363990 6.912251 -0.536067 -0.578825 0.773862 -0.257097 75 255 68
0.114509 7.182961 -0.798521 -0.427688 0.892835 0.141168 75 255 68
-0.363990 6.912251 -0.536067 -0.427688 0.892835 0.141168 75 255 68
-0.001812 6.996830 0.026276 -0.427688 0.892835 0.141168 53 255 60
0.114509 7.182961 -0.798521 0.621946 0.779125 -0.078406 75 255 68
0.502507 6.912251 -0.410824 0.621946 0.779125 -0.078406 75 255 68
0.719545 6.662866 -1.167353 0.621946 0.779125 -0.078406 75 255 68
0.261022 6.805983 -1.741190 -0.519024 0.675614 -0.523603 75 255 68
-0.094112 6.330353 -2.002876 -0.519024 0.675614 -0.523603 75 255 68
-0.348444 6.662866 -1.321720 -0.519024 0.675614 -0.523603 75 255 68
0.719545 6.662866 -1.167353 0.647854 0.677238 -0.348760 75 255 68
0.678724 6.330353 -1.888870 0.647854 0.677238 -0.348760 75 255 68
0.261022 6.805983 -1.741190 0.647854 0.677238 -0.348760 75 255 68
0.261022 6.805983 -1.741190 -0.224544 0.593068 -0.773208 75 255 68
0.367556 5.937579 -2.438213 -0.224544 0.593068 -0.773208 107 255 102
-0.094112 6.330353 -2.002876 -0.224544 0.593068 -0.773208 75 255 68
0.261022 6.805983 -1.741190 0.438853 0.594585 -0.673704 75 255 68
0.678724 6.330353 -1.888870 0.438853 0.594585 -0.673704 75 255 68
0.367556 5.937579 -2.438213 0.438853 0.594585 -0.673704 107 255 102
0.130595 6.962082 0.042433 0.950917 0.017115 -0.308972 135 84 45
0.080712 6.962082 -0.111091 0.000000 0.017115 -0.999854 135 84 45
-0.080712 6.962082 -0.111091 -0.950917 0.017115 -0.308972 135 84 45
-0.130595 6.962082 0.042433 -0.587699 0.017115 0.808899 135 84 45
0.000000 6.962082 0.137316 0.587699 0.017115 0.808899 135 84 45
3 0 1 2
3 3 4 5
3 6 7 8
3 9 10 11
3 11 12 13
3 11 13 9
3 14 15 16
3 17 18 19
3 20 21 22
3 23 24 25
3 26 27 28
3 29 30 31
3 32 33 34
3 35 36 37
3 38 39 40
3 41 42 43
3 44 45 46
3 47 48 49
3 50 51 52
3 53 54 55
3 56 57 58
3 59 60 61
3 62 63 64
3 65 66 67
3 68 69 70
3 71 72 73
3 74 75 76
3 77 78 79
3 80 81 82
3 83 84 85
3 86 87 88
3 89 90 91
3 92 93 94
3 95 96 97
3 98 99 100
3 101 102 103
3 104 105 106
3 107 108 109
3 110 111 112
3 113 114 115
3 116 117 118
3 119 120 121
3 122 123 124
3 125 126 127
3 128 129 130
3 131 132 133
3 134 135 136
3 137 138 139
3 140 141 142
3 143 144 145
3 146 147 148
3 149 150 151
3 152 153 154
3 155 156 157
3 158 159 160
3 161 162 163
3 164 165 166
3 167 168 169
3 14 170 15
3 6 171 7
3 3 172 4
3 0 173 1
3 17 174 18
