ply
format ascii 1.0
comment Created by Blender 2.79 (sub 0) - www.blender.org, source file: 'obelisk.blend'
element vertex 48
property float x
property float y
property float z
property float nx
property float ny
property float nz
property uchar red
property uchar green
property uchar blue
element face 22
property list uchar uint vertex_indices
end_header
0.446250 3.500000 0.446250 -0.000000 1.000000 0.000000 64 64 64
-0.446250 3.500000 -0.446250 -0.000000 1.000000 0.000000 68 66 66
-0.446250 3.500000 0.446250 -0.000000 1.000000 0.000000 64 64 64
-0.300000 0.500000 -0.300000 0.000000 -0.048692 -0.998814 72 72 72
0.446250 3.500000 -0.446250 0.000000 -0.048692 -0.998814 74 74 74
0.300000 0.500000 -0.300000 0.000000 -0.048692 -0.998814 74 74 74
0.300000 0.500000 0.300000 0.000000 -0.048692 0.998814 64 64 64
-0.446250 3.500000 0.446250 0.000000 -0.048692 0.998814 64 64 64
-0.300000 0.500000 0.300000 0.000000 -0.048692 0.998814 64 64 64
0.446250 3.500000 -0.446250 0.000000 1.000000 0.000000 74 74 74
-0.300000 0.500000 0.300000 -0.998814 -0.048692 0.000000 64 64 64
-0.446250 3.500000 -0.446250 -0.998814 -0.048692 0.000000 68 66 66
-0.300000 0.500000 -0.300000 -0.998814 -0.048692 0.000000 66 66 66
0.300000 0.500000 -0.300000 0.998814 -0.048692 0.000000 74 74 74
0.446250 3.500000 0.446250 0.998814 -0.048692 0.000000 64 64 64
0.300000 0.500000 0.300000 0.998814 -0.048692 0.000000 64 64 64
0.300000 0.500000 0.300000 0.761939 0.647648 0.000000 64 64 64
0.937500 -0.250000 -0.937500 0.761939 0.647648 0.000000 64 64 64
0.300000 0.500000 -0.300000 0.761939 0.647648 0.000000 74 74 74
-0.300000 0.500000 -0.300000 -0.761939 0.647648 0.000000 66 66 66
-0.937500 -0.250000 0.937500 -0.761939 0.647648 0.000000 64 64 64
-0.300000 0.500000 0.300000 -0.761939 0.647648 0.000000 64 64 64
0.300000 0.500000 -0.300000 0.000000 0.647648 -0.761939 74 74 74
-0.937500 -0.250000 -0.937500 0.000000 0.647648 -0.761939 64 64 64
-0.300000 0.500000 -0.300000 0.000000 0.647648 -0.761939 72 72 72
-0.300000 0.500000 0.300000 0.000000 0.647648 0.761939 64 64 64
0.937500 -0.250000 0.937500 0.000000 0.647648 0.761939 64 64 64
0.300000 0.500000 0.300000 0.000000 0.647648 0.761939 64 64 64
0.937500 -0.250000 0.937500 0.761939 0.647648 -0.000000 64 64 64
-0.937500 -0.250000 -0.937500 -0.761939 0.647648 0.000000 67 67 67
0.937500 -0.250000 -0.937500 0.000000 0.647648 -0.761939 64 64 64
-0.937500 -0.250000 0.937500 0.000000 0.647648 0.761939 67 67 67
-0.350000 3.500000 -0.350000 0.000000 0.573462 -0.819232 255 8 0
0.000000 4.000000 0.000000 0.000000 0.573462 -0.819232 255 8 0
0.350000 3.500000 -0.350000 0.000000 0.573462 -0.819232 248 12 5
0.350000 3.500000 -0.350000 0.819232 0.573462 0.000000 248 12 5
0.000000 4.000000 0.000000 0.819232 0.573462 0.000000 255 8 0
0.350000 3.500000 0.350000 0.819232 0.573462 0.000000 220 32 25
0.350000 3.500000 0.350000 0.000000 0.573462 0.819232 220 32 25
0.000000 4.000000 0.000000 0.000000 0.573462 0.819232 255 8 0
-0.350000 3.500000 0.350000 0.000000 0.573462 0.819232 251 7 1
-0.350000 3.500000 0.350000 -0.819232 0.573462 0.000000 251 7 1
0.000000 4.000000 0.000000 -0.819232 0.573462 0.000000 255 8 0
-0.350000 3.500000 -0.350000 -0.819232 0.573462 0.000000 255 8 0
-0.446250 3.500000 -0.446250 -0.000000 -0.048692 -0.998814 74 72 72
0.446250 3.500000 0.446250 0.000000 -0.048692 0.998814 64 64 64
-0.446250 3.500000 0.446250 -0.998814 -0.048692 0.000000 64 64 64
0.446250 3.500000 -0.446250 0.998814 -0.048692 0.000000 74 74 74
3 0 1 2
3 3 4 5
3 6 7 8
3 0 9 1
3 10 11 12
3 13 14 15
3 16 17 18
3 19 20 21
3 22 23 24
3 25 26 27
3 16 28 17
3 19 29 20
3 22 30 23
3 25 31 26
3 32 33 34
3 35 36 37
3 38 39 40
3 41 42 43
3 3 44 4
3 6 45 7
3 10 46 11
3 13 47 14
