ply
format ascii 1.0
comment Created by Blender 2.79 (sub 0) - www.blender.org, source file: 'pillar.blend'
element vertex 56
property float x
property float y
property float z
property float nx
property float ny
property float nz
property uchar red
property uchar green
property uchar blue
element face 20
property list uchar uint vertex_indices
end_header
-1.000000 0.000000 -1.000000 0.000000 -1.000000 -0.000000 2 2 2
1.000000 0.000000 1.000000 0.000000 -1.000000 -0.000000 0 0 0
-1.000000 0.000000 1.000000 0.000000 -1.000000 -0.000000 0 0 0
-1.000000 0.000000 -1.000000 0.000000 0.447214 -0.894427 255 255 255
0.000000 1.000000 -0.500000 0.000000 0.447214 -0.894427 255 255 255
1.000000 0.000000 -1.000000 0.000000 0.447214 -0.894427 255 255 255
1.000000 0.000000 -1.000000 0.000000 -1.000000 -0.000000 0 0 0
-1.000000 0.000000 -1.000000 -0.485071 0.727607 -0.485071 255 255 255
-0.500000 1.000000 0.000000 -0.485071 0.727607 -0.485071 255 255 255
0.000000 1.000000 -0.500000 -0.485071 0.727607 -0.485071 255 255 255
-1.000000 0.000000 -1.000000 -0.894427 0.447214 0.000000 255 255 255
-1.000000 0.000000 1.000000 -0.894427 0.447214 0.000000 255 255 255
-0.500000 1.000000 0.000000 -0.894427 0.447214 0.000000 255 255 255
-0.500000 1.000000 0.000000 -0.485071 0.727607 0.485071 255 255 255
-1.000000 0.000000 1.000000 -0.485071 0.727607 0.485071 255 255 255
0.000000 1.000000 0.500000 -0.485071 0.727607 0.485071 255 255 255
1.000000 0.000000 1.000000 -0.000000 0.447214 0.894427 255 255 255
0.000000 1.000000 0.500000 -0.000000 0.447214 0.894427 255 255 255
-1.000000 0.000000 1.000000 -0.000000 0.447214 0.894427 255 255 255
0.000000 1.000000 0.500000 0.485071 0.727607 0.485071 255 255 255
1.000000 0.000000 1.000000 0.485071 0.727607 0.485071 255 255 255
0.500000 1.000000 0.000000 0.485071 0.727607 0.485071 255 255 255
1.000000 0.000000 1.000000 0.894427 0.447213 0.000000 255 255 255
1.000000 0.000000 -1.000000 0.894427 0.447213 0.000000 255 255 255
0.500000 1.000000 0.000000 0.894427 0.447213 0.000000 255 255 255
0.000000 1.000000 -0.500000 0.485071 0.727607 -0.485071 255 255 255
0.500000 1.000000 0.000000 0.485071 0.727607 -0.485071 255 255 255
1.000000 0.000000 -1.000000 0.485071 0.727607 -0.485071 255 255 255
0.000000 1.000000 0.500000 -0.000000 0.000000 1.000000 255 255 255
0.500000 2.000000 0.500000 -0.000000 0.000000 1.000000 255 255 255
-0.500000 2.000000 0.500000 -0.000000 0.000000 1.000000 255 255 255
0.000000 1.000000 0.500000 0.666667 -0.333333 0.666667 255 255 255
0.500000 1.000000 0.000000 0.666667 -0.333333 0.666667 255 255 255
0.500000 2.000000 0.500000 0.666667 -0.333333 0.666667 255 255 255
0.500000 2.000000 0.500000 -0.000000 1.000000 0.000000 0 0 0
-0.500000 2.000000 -0.500000 -0.000000 1.000000 0.000000 0 0 0
-0.500000 2.000000 0.500000 -0.000000 1.000000 0.000000 0 0 0
0.500000 2.000000 -0.500000 0.000000 1.000000 -0.000000 0 0 0
0.000000 1.000000 -0.500000 0.666667 -0.333333 -0.666667 255 255 255
0.500000 2.000000 -0.500000 0.666667 -0.333333 -0.666667 255 255 255
0.500000 1.000000 0.000000 0.666667 -0.333333 -0.666667 255 255 255
0.500000 1.000000 0.000000 1.000000 0.000000 0.000000 255 255 255
0.500000 2.000000 -0.500000 1.000000 0.000000 0.000000 255 255 255
0.500000 2.000000 0.500000 1.000000 0.000000 0.000000 255 255 255
-0.500000 1.000000 0.000000 -0.666667 -0.333333 -0.666667 255 255 255
-0.500000 2.000000 -0.500000 -0.666667 -0.333333 -0.666667 255 255 255
0.000000 1.000000 -0.500000 -0.666667 -0.333333 -0.666667 255 255 255
0.500000 2.000000 -0.500000 0.000000 -0.000000 -1.000000 255 255 255
0.000000 1.000000 -0.500000 0.000000 -0.000000 -1.000000 255 255 255
-0.500000 2.000000 -0.500000 0.000000 -0.000000 -1.000000 255 255 255
-0.500000 2.000000 -0.500000 -1.000000 -0.000000 -0.000000 255 255 255
-0.500000 1.000000 0.000000 -1.000000 -0.000000 -0.000000 255 255 255
-0.500000 2.000000 0.500000 -1.000000 -0.000000 -0.000000 255 255 255
-0.500000 1.000000 0.000000 -0.666667 -0.333333 0.666667 255 255 255
0.000000 1.000000 0.500000 -0.666667 -0.333333 0.666667 255 255 255
-0.500000 2.000000 0.500000 -0.666667 -0.333333 0.666667 255 255 255
3 0 1 2
3 3 4 5
3 0 6 1
3 7 8 9
3 10 11 12
3 13 14 15
3 16 17 18
3 19 20 21
3 22 23 24
3 25 26 27
3 28 29 30
3 31 32 33
3 34 35 36
3 34 37 35
3 38 39 40
3 41 42 43
3 44 45 46
3 47 48 49
3 50 51 52
3 53 54 55
