ply
format ascii 1.0
comment Created by Blender 2.79 (sub 0) - www.blender.org, source file: 'palmtree.blend'
element vertex 175
property float x
property float y
property float z
property float nx
property float ny
property float nz
property uchar red
property uchar green
property uchar blue
element face 63
property list uchar uint vertex_indices
end_header
0.210000 6.962082 -0.000000 0.808740 0.026170 0.587584 135 84 45
0.154509 -2.000000 0.475528 0.808740 0.026170 0.587584 135 84 45
0.500000 -2.000000 -0.000000 0.808740 0.026170 0.587584 135 84 45
0.064894 6.962082 0.199722 -0.308911 0.026170 0.950731 135 84 45
-0.404509 -2.000000 0.293893 -0.308911 0.026170 0.950731 135 84 45
0.154509 -2.000000 0.475528 -0.308911 0.026170 0.950731 135 84 45
-0.169894 6.962082 0.123435 -0.999658 0.026170 -0.000000 135 84 45
-0.404508 -2.000000 -0.293893 -0.999658 0.026170 -0.000000 135 84 45
-0.404509 -2.000000 0.293893 -0.999658 0.026170 -0.000000 135 84 45
-0.169894 6.962082 0.123435 0.000000 1.000000 0.000000 255 255 255
0.064894 6.962082 0.199722 0.000000 1.000000 0.000000 255 255 255
0.210000 6.962082 -0.000000 0.000000 1.000000 0.000000 255 255 255
0.064894 6.962082 -0.199722 -0.000000 1.000000 0.000000 255 255 255
-0.169894 6.962082 -0.123435 -0.000000 1.000000 0.000000 255 255 255
-0.169894 6.962082 -0.123435 -0.308911 0.026170 -0.950731 135 84 45
0.154509 -2.000000 -0.475528 -0.308911 0.026170 -0.950731 135 84 45
-0.404508 -2.000000 -0.293893 -0.308911 0.026170 -0.950731 135 84 45
0.064894 6.962082 -0.199722 0.808740 0.026170 -0.587584 135 84 45
0.500000 -2.000000 -0.000000 0.808740 0.026170 -0.587584 135 84 45
0.154509 -2.000000 -0.475528 0.808740 0.026170 -0.587584 135 84 45
0.816778 6.662866 -1.951368 0.559381 0.802893 -0.206048 75 255 68
-0.008990 7.042744 -2.712928 0.559381 0.802893 -0.206048 75 255 68
-0.012671 7.419721 -1.253983 0.559381 0.802893 -0.206048 75 255 68
-0.008990 7.042744 -2.712928 -0.563776 0.799318 -0.207959 75 255 68
-0.833436 6.662866 -1.937967 -0.563776 0.799318 -0.207959 75 255 68
-0.012671 7.419721 -1.253983 -0.563776 0.799318 -0.207959 75 255 68
-0.012671 7.419721 -1.253983 0.437057 0.855118 0.278845 75 255 68
0.002055 6.996830 0.019792 0.437057 0.855118 0.278845 53 255 60
0.663470 6.912251 -0.757527 0.437057 0.855118 0.278845 64 255 64
-0.012671 7.419721 -1.253983 -0.641668 0.763338 -0.074677 75 255 68
-0.833436 6.662866 -1.937967 -0.641668 0.763338 -0.074677 75 255 68
-0.675407 6.912251 -0.746655 -0.641668 0.763338 -0.074677 75 255 68
-0.012671 7.419721 -1.253983 -0.433028 0.853957 0.288519 75 255 68
-0.675407 6.912251 -0.746655 -0.433028 0.853957 0.288519 75 255 68
0.002055 6.996830 0.019792 -0.433028 0.853957 0.288519 53 255 60
-0.012671 7.419721 -1.253983 0.634865 0.768572 -0.079023 77 255 70
0.663470 6.912251 -0.757527 0.634865 0.768572 -0.079023 65 255 65
0.816778 6.662866 -1.951368 0.634865 0.768572 -0.079023 75 255 68
-0.008990 7.042744 -2.712928 -0.639707 0.687588 -0.343507 75 255 68
-0.606333 6.330353 -3.026479 -0.639707 0.687588 -0.343507 75 255 68
-0.833436 6.662866 -1.937967 -0.639707 0.687588 -0.343507 75 255 68
0.816778 6.662866 -1.951368 0.636469 0.689156 -0.346368 75 255 68
0.588354 6.330353 -3.032699 0.636469 0.689156 -0.346368 75 255 68
-0.008990 7.042744 -2.712928 0.636469 0.689156 -0.346368 75 255 68
-0.008990 7.042744 -2.712928 -0.415787 0.635141 -0.650935 75 255 68
-0.008990 5.937579 -3.791277 -0.415787 0.635141 -0.650935 75 255 68
-0.606333 6.330353 -3.026479 -0.415787 0.635141 -0.650935 75 255 68
-0.008990 7.042744 -2.712928 0.410157 0.636924 -0.652763 75 255 68
0.588354 6.330353 -3.032699 0.410157 0.636924 -0.652763 75 255 68
-0.008990 5.937579 -3.791277 0.410157 0.636924 -0.652763 75 255 68
2.114131 6.662866 -0.035011 0.417204 0.802893 0.425798 75 255 68
2.470364 7.042744 -1.100358 0.417204 0.802893 0.425798 75 255 68
1.138066 7.419721 -0.505785 0.417204 0.802893 0.425798 75 255 68
2.470364 7.042744 -1.100358 -0.041366 0.799318 -0.599482 75 255 68
1.425587 6.662866 -1.534775 -0.041366 0.799318 -0.599482 75 255 68
1.138066 7.419721 -0.505785 -0.041366 0.799318 -0.599482 75 255 68
1.138066 7.419721 -0.505785 -0.075228 0.855118 0.512946 75 255 68
-0.017783 6.996830 0.029689 -0.075228 0.855118 0.512946 53 255 60
0.962328 6.912251 0.314429 -0.075228 0.855118 0.512946 53 255 60
1.138066 7.419721 -0.505785 -0.194863 0.763338 -0.615908 75 255 68
1.425587 6.662866 -1.534775 -0.194863 0.763338 -0.615908 75 255 68
0.403687 6.912251 -0.902383 -0.194863 0.763338 -0.615908 62 255 63
1.138066 7.419721 -0.505785 -0.440646 0.853957 -0.276744 75 255 68
0.403687 6.912251 -0.902383 -0.440646 0.853957 -0.276744 62 255 63
-0.017783 6.996830 0.029689 -0.440646 0.853957 -0.276744 53 255 60
1.138066 7.419721 -0.505785 0.332273 0.768572 0.546710 75 255 68
0.962328 6.912251 0.314429 0.332273 0.768572 0.546710 53 255 60
2.114131 6.662866 -0.035011 0.332273 0.768572 0.546710 75 255 68
2.470364 7.042744 -1.100358 0.051156 0.687589 -0.724296 75 255 68
2.511557 6.330353 -1.773736 0.051156 0.687589 -0.724296 75 255 68
1.425587 6.662866 -1.534775 0.051156 0.687589 -0.724296 75 255 68
2.114131 6.662866 -0.035011 0.576792 0.689156 0.438605 75 255 68
3.006859 6.330353 -0.686541 0.576792 0.689156 0.438605 75 255 68
2.470364 7.042744 -1.100358 0.576792 0.689156 0.438605 75 255 68
2.470364 7.042744 -1.100358 0.423351 0.635141 -0.646042 75 255 68
3.453989 5.937579 -1.542307 0.423351 0.635141 -0.646042 75 255 68
2.511557 6.330353 -1.773736 0.423351 0.635141 -0.646042 75 255 68
2.470364 7.042744 -1.100358 0.763521 0.636924 0.106601 75 255 68
3.006859 6.330353 -0.686541 0.763521 0.636924 0.106601 75 255 68
3.453989 5.937579 -1.542307 0.763521 0.636924 0.106601 75 255 68
0.720264 6.662866 2.019549 -0.278429 0.802893 0.527106 56 255 61
1.843496 7.042744 2.034233 -0.278429 0.802893 0.527106 53 255 60
0.871246 7.419721 0.946453 -0.278429 0.802893 0.527106 53 255 60
1.843496 7.042744 2.034233 0.558372 0.799318 -0.222060 53 255 60
1.938914 6.662866 0.906771 0.558372 0.799318 -0.222060 80 255 74
0.871246 7.419721 0.946453 0.558372 0.799318 -0.222060 53 255 60
0.871246 7.419721 0.946453 -0.511477 0.855118 0.084643 53 255 60
0.009049 6.996830 0.008725 -0.511477 0.855118 0.084643 53 255 60
0.036487 6.912251 1.028990 -0.511477 0.855118 0.084643 75 255 68
0.871246 7.419721 0.946453 0.527247 0.763338 -0.373263 53 255 60
1.938914 6.662866 0.906771 0.527247 0.763338 -0.373263 80 255 74
1.025221 6.912251 0.126153 0.527247 0.763338 -0.373263 53 255 60
0.871246 7.419721 0.946453 0.129320 0.853958 -0.504017 53 255 60
1.025221 6.912251 0.126153 0.129320 0.853958 -0.504017 53 255 60
0.009049 6.996830 0.008725 0.129320 0.853958 -0.504017 53 255 60
0.871246 7.419721 0.946453 -0.419470 0.768572 0.483055 53 255 60
0.036487 6.912251 1.028990 -0.419470 0.768572 0.483055 75 255 68
0.720264 6.662866 2.019549 -0.419470 0.768572 0.483055 56 255 61
1.843496 7.042744 2.034233 0.705443 0.687588 -0.171968 53 255 60
2.497405 6.330353 1.868291 0.705443 0.687588 -0.171968 76 255 69
1.938914 6.662866 0.906771 0.705443 0.687588 -0.171968 80 255 74
0.720264 6.662866 2.019549 -0.242002 0.689156 0.683007 56 255 61
1.612825 6.330353 2.671307 -0.242002 0.689156 0.683007 75 255 68
1.843496 7.042744 2.034233 -0.242002 0.689156 0.683007 53 255 60
1.843496 7.042744 2.034233 0.744316 0.635141 0.206372 53 255 60
2.564138 5.937579 2.836425 0.744316 0.635141 0.206372 75 255 68
2.497405 6.330353 1.868291 0.744316 0.635141 0.206372 76 255 69
1.843496 7.042744 2.034233 0.131112 0.636924 0.759696 53 255 60
1.612825 6.330353 2.671307 0.131112 0.636924 0.759696 75 255 68
2.564138 5.937579 2.836425 0.131112 0.636924 0.759696 75 255 68
-1.454156 6.662866 1.523222 -0.596017 0.802893 -0.011281 83 255 77
-0.961533 7.042744 2.532770 -0.596017 0.802893 -0.011281 75 255 68
-0.428006 7.419721 1.174873 -0.596017 0.802893 -0.011281 75 255 68
-0.961533 7.042744 2.532770 0.449685 0.799318 0.398589 75 255 68
0.088143 6.662866 2.110330 0.449685 0.799318 0.398589 53 255 60
-0.428006 7.419721 1.174873 0.449685 0.799318 0.398589 75 255 68
-0.428006 7.419721 1.174873 -0.305870 0.855118 -0.418589 75 255 68
0.021090 6.996830 -0.017197 -0.305870 0.855118 -0.418589 53 255 60
-0.877553 6.912251 0.466676 -0.305870 0.855118 -0.418589 75 255 68
-0.428006 7.419721 1.174873 0.570680 0.763338 0.302718 75 255 68
0.088143 6.662866 2.110330 0.570680 0.763338 0.302718 53 255 60
0.373769 6.912251 0.943018 0.570680 0.763338 0.302718 53 255 60
-0.428006 7.419721 1.174873 0.508264 0.853957 -0.111463 75 255 68
0.373769 6.912251 0.943018 0.508264 0.853957 -0.111463 53 255 60
0.021090 6.996830 -0.017197 0.508264 0.853957 -0.111463 53 255 60
-0.428006 7.419721 1.174873 -0.620188 0.768572 -0.157051 75 255 68
-0.877553 6.912251 0.466676 -0.620188 0.768572 -0.157051 75 255 68
-1.454156 6.662866 1.523222 -0.620188 0.768572 -0.157051 83 255 77
-0.961533 7.042744 2.532770 0.471176 0.687588 0.552463 75 255 68
-0.518940 6.330353 3.041931 0.471176 0.687588 0.552463 53 255 60
0.088143 6.662866 2.110330 0.471176 0.687588 0.552463 53 255 60
-1.454156 6.662866 1.523222 -0.718820 0.689157 0.091440 83 255 77
-1.634238 6.330353 2.613646 -0.718820 0.689157 0.091440 75 255 68
-0.961533 7.042744 2.532770 -0.718820 0.689157 0.091440 75 255 68
-0.961533 7.042744 2.532770 0.150858 0.635141 0.757521 75 255 68
-1.353343 5.937579 3.537420 0.150858 0.635141 0.757521 75 255 68
-0.518940 6.330353 3.041931 0.150858 0.635141 0.757521 53 255 60
-0.961533 7.042744 2.532770 -0.619301 0.636924 0.459122 75 255 68
-1.634238 6.330353 2.613646 -0.619301 0.636924 0.459122 75 255 68
-1.353343 5.937579 3.537420 -0.619301 0.636924 0.459122 75 255 68
-1.785254 6.662866 -1.100413 -0.119168 0.802893 -0.584091 75 255 68
-2.662834 7.042744 -0.399186 -0.119168 0.802893 -0.584091 75 255 68
-1.221193 7.419721 -0.175121 -0.119168 0.802893 -0.584091 75 255 68
-2.662834 7.042744 -0.399186 -0.290750 0.799318 0.525885 75 255 68
-2.021331 6.662866 0.532881 -0.290750 0.799318 0.525885 75 255 68
-1.221193 7.419721 -0.175121 -0.290750 0.799318 0.525885 75 255 68
-1.221193 7.419721 -0.175121 0.341677 0.855118 -0.389910 75 255 68
0.040185 6.996830 0.002771 0.341677 0.855118 -0.389910 53 255 60
-0.628280 6.912251 -0.768493 0.341677 0.855118 -0.389910 75 255 68
-1.221193 7.419721 -0.175121 -0.170766 0.763338 0.623019 75 255 68
-2.021331 6.662866 0.532881 -0.170766 0.763338 0.623019 75 255 68
-0.819818 6.912251 0.556657 -0.170766 0.763338 0.623019 75 255 68
-1.221193 7.419721 -0.175121 0.219782 0.853958 0.471648 75 255 68
-0.819818 6.912251 0.556657 0.219782 0.853958 0.471648 75 255 68
0.040185 6.996830 0.002771 0.219782 0.853958 0.471648 53 255 60
-1.221193 7.419721 -0.175121 0.017803 0.768572 -0.639516 75 255 68
-0.628280 6.912251 -0.768493 0.017803 0.768572 -0.639516 75 255 68
-1.785254 6.662866 -1.100413 0.017803 0.768572 -0.639516 75 255 68
-2.662834 7.042744 -0.399186 -0.436215 0.687588 0.580465 75 255 68
-3.063035 6.330353 0.143927 -0.436215 0.687588 0.580465 75 255 68
-2.021331 6.662866 0.532881 -0.436215 0.687588 0.580465 75 255 68
-1.785254 6.662866 -1.100413 -0.246230 0.689157 -0.681494 75 255 68
-2.888684 6.330353 -1.037986 -0.246230 0.689157 -0.681494 75 255 68
-2.662834 7.042744 -0.399186 -0.246230 0.689157 -0.681494 75 255 68
-2.662834 7.042744 -0.399186 -0.706282 0.635141 0.312667 75 255 68
-3.728805 5.937579 -0.562110 -0.706282 0.635141 0.312667 107 255 102
-3.063035 6.330353 0.143927 -0.706282 0.635141 0.312667 75 255 68
-2.662834 7.042744 -0.399186 -0.583300 0.636924 -0.504072 75 255 68
-2.888684 6.330353 -1.037986 -0.583300 0.636924 -0.504072 75 255 68
-3.728805 5.937579 -0.562110 -0.583300 0.636924 -0.504072 107 255 102
0.064894 6.962082 -0.199722 -0.308911 0.026170 -0.950731 135 84 45
-0.169894 6.962082 -0.123435 -0.999658 0.026170 0.000000 135 84 45
-0.169894 6.962082 0.123435 -0.308911 0.026170 0.950731 135 84 45
0.064894 6.962082 0.199722 0.808740 0.026170 0.587584 135 84 45
0.210000 6.962082 -0.000000 0.808740 0.026170 -0.587584 135 84 45
3 0 1 2
3 3 4 5
3 6 7 8
3 9 10 11
3 11 12 13
3 11 13 9
3 14 15 16
3 17 18 19
3 20 21 22
3 23 24 25
3 26 27 28
3 29 30 31
3 32 33 34
3 35 36 37
3 38 39 40
3 41 42 43
3 44 45 46
3 47 48 49
3 50 51 52
3 53 54 55
3 56 57 58
3 59 60 61
3 62 63 64
3 65 66 67
3 68 69 70
3 71 72 73
3 74 75 76
3 77 78 79
3 80 81 82
3 83 84 85
3 86 87 88
3 89 90 91
3 92 93 94
3 95 96 97
3 98 99 100
3 101 102 103
3 104 105 106
3 107 108 109
3 110 111 112
3 113 114 115
3 116 117 118
3 119 120 121
3 122 123 124
3 125 126 127
3 128 129 130
3 131 132 133
3 134 135 136
3 137 138 139
3 140 141 142
3 143 144 145
3 146 147 148
3 149 150 151
3 152 153 154
3 155 156 157
3 158 159 160
3 161 162 163
3 164 165 166
3 167 168 169
3 14 170 15
3 6 171 7
3 3 172 4
3 0 173 1
3 17 174 18
